HIERARCHY
ROOT Hips
{
	OFFSET -14.64140 90.27770 -84.91600
	CHANNELS 6 Xposition Yposition Zposition Zrotation Xrotation Yrotation
	JOINT Spine
	{
		OFFSET 0.00000 13.20850 -1.60436
		CHANNELS 3 Zrotation Xrotation Yrotation
		JOINT Spine1
		{
			OFFSET 0.00000 8.61716 0.00000
			CHANNELS 3 Zrotation Xrotation Yrotation
			JOINT Spine2
			{
				OFFSET 0.00000 8.61717 0.00000
				CHANNELS 3 Zrotation Xrotation Yrotation
				JOINT Spine3
				{
					OFFSET 0.00000 8.61717 0.00000
					CHANNELS 3 Zrotation Xrotation Yrotation
					JOINT Neck
					{
						OFFSET 0.00000 11.07920 1.10792
						CHANNELS 3 Zrotation Xrotation Yrotation
						JOINT Neck1
						{
							OFFSET 0.00000 7.08032 0.00000
							CHANNELS 3 Zrotation Xrotation Yrotation
							JOINT Head
							{
								OFFSET 0.00000 7.08031 0.00000
								CHANNELS 3 Zrotation Xrotation Yrotation
								End site
								{
									OFFSET 0.00000 0.00000 0.00000
								}
							}
						}
					}
					JOINT RightShoulder
					{
						OFFSET -0.01000 7.91373 5.19711
						CHANNELS 3 Zrotation Xrotation Yrotation
						JOINT RightArm
						{
							OFFSET -18.41580 0.00000 0.00000
							CHANNELS 3 Zrotation Xrotation Yrotation
							JOINT RightForeArm
							{
								OFFSET -29.11090 0.00000 0.00000
								CHANNELS 3 Zrotation Xrotation Yrotation
								JOINT RightHand
								{
									OFFSET -24.65040 0.00000 0.00000
									CHANNELS 3 Zrotation Xrotation Yrotation
									JOINT RightHandThumb1
									{
										OFFSET -5.35114 -0.85590 3.97906
										CHANNELS 3 Zrotation Xrotation Yrotation
										JOINT RightHandThumb2
										{
											OFFSET -4.52789 0.00000 0.00000
											CHANNELS 3 Zrotation Xrotation Yrotation
											JOINT RightHandThumb3
											{
												OFFSET -2.46976 0.00000 0.00000
												CHANNELS 3 Zrotation Xrotation Yrotation
												End site
												{
													OFFSET 0.00000 0.00000 0.00000
												}
											}
										}
									}
									JOINT RightHandIndex1
									{
										OFFSET -14.26970 0.00000 2.88139
										CHANNELS 3 Zrotation Xrotation Yrotation
										JOINT RightHandIndex2
										{
											OFFSET -5.48836 0.00000 0.00000
											CHANNELS 3 Zrotation Xrotation Yrotation
											JOINT RightHandIndex3
											{
												OFFSET -3.01859 0.00000 0.00000
												CHANNELS 3 Zrotation Xrotation Yrotation
												End site
												{
													OFFSET 0.00000 0.00000 0.00000
												}
											}
										}
									}
									JOINT RightHandMiddle1
									{
										OFFSET -14.26970 0.00000 -0.09147
										CHANNELS 3 Zrotation Xrotation Yrotation
										JOINT RightHandMiddle2
										{
											OFFSET -6.17441 0.00000 0.00000
											CHANNELS 3 Zrotation Xrotation Yrotation
											JOINT RightHandMiddle3
											{
												OFFSET -3.56743 0.00000 0.00000
												CHANNELS 3 Zrotation Xrotation Yrotation
												End site
												{
													OFFSET 0.00000 0.00000 0.00000
												}
											}
										}
									}
									JOINT RightHandRing1
									{
										OFFSET -12.69180 0.00000 -3.06433
										CHANNELS 3 Zrotation Xrotation Yrotation
										JOINT RightHandRing2
										{
											OFFSET -5.62556 0.00000 0.00000
											CHANNELS 3 Zrotation Xrotation Yrotation
											JOINT RightHandRing3
											{
												OFFSET -3.56744 0.00000 0.00000
												CHANNELS 3 Zrotation Xrotation Yrotation
												End site
												{
													OFFSET 0.00000 0.00000 0.00000
												}
											}
										}
									}
									JOINT RightHandPinky1
									{
										OFFSET -11.11390 0.00000 -6.03719
										CHANNELS 3 Zrotation Xrotation Yrotation
										JOINT RightHandPinky2
										{
											OFFSET -4.52789 0.00000 0.00000
											CHANNELS 3 Zrotation Xrotation Yrotation
											JOINT RightHandPinky3
											{
												OFFSET -2.46976 0.00000 0.00000
												CHANNELS 3 Zrotation Xrotation Yrotation
												End site
												{
													OFFSET 0.00000 0.00000 0.00000
												}
											}
										}
									}
								}
							}
						}
					}
					JOINT LeftShoulder
					{
						OFFSET 0.01000 7.91373 5.19711
						CHANNELS 3 Zrotation Xrotation Yrotation
						JOINT LeftArm
						{
							OFFSET 18.41580 0.00000 0.00000
							CHANNELS 3 Zrotation Xrotation Yrotation
							JOINT LeftForeArm
							{
								OFFSET 29.11090 0.00000 0.00000
								CHANNELS 3 Zrotation Xrotation Yrotation
								JOINT LeftHand
								{
									OFFSET 24.65040 0.00000 0.00000
									CHANNELS 3 Zrotation Xrotation Yrotation
									JOINT LeftHandThumb1
									{
										OFFSET 5.35114 -0.85590 3.97906
										CHANNELS 3 Zrotation Xrotation Yrotation
										JOINT LeftHandThumb2
										{
											OFFSET 4.52789 0.00000 0.00000
											CHANNELS 3 Zrotation Xrotation Yrotation
											JOINT LeftHandThumb3
											{
												OFFSET 2.46977 0.00000 0.00000
												CHANNELS 3 Zrotation Xrotation Yrotation
												End site
												{
													OFFSET 0.00000 0.00000 0.00000
												}
											}
										}
									}
									JOINT LeftHandIndex1
									{
										OFFSET 14.26970 0.00000 2.88139
										CHANNELS 3 Zrotation Xrotation Yrotation
										JOINT LeftHandIndex2
										{
											OFFSET 5.48836 0.00000 0.00000
											CHANNELS 3 Zrotation Xrotation Yrotation
											JOINT LeftHandIndex3
											{
												OFFSET 3.01859 0.00000 0.00000
												CHANNELS 3 Zrotation Xrotation Yrotation
												End site
												{
													OFFSET 0.00000 0.00000 0.00000
												}
											}
										}
									}
									JOINT LeftHandMiddle1
									{
										OFFSET 14.26970 0.00000 -0.09147
										CHANNELS 3 Zrotation Xrotation Yrotation
										JOINT LeftHandMiddle2
										{
											OFFSET 6.17440 0.00000 0.00000
											CHANNELS 3 Zrotation Xrotation Yrotation
											JOINT LeftHandMiddle3
											{
												OFFSET 3.56744 0.00000 0.00000
												CHANNELS 3 Zrotation Xrotation Yrotation
												End site
												{
													OFFSET 0.00000 0.00000 0.00000
												}
											}
										}
									}
									JOINT LeftHandRing1
									{
										OFFSET 12.69180 0.00000 -3.06433
										CHANNELS 3 Zrotation Xrotation Yrotation
										JOINT LeftHandRing2
										{
											OFFSET 5.62556 0.00000 0.00000
											CHANNELS 3 Zrotation Xrotation Yrotation
											JOINT LeftHandRing3
											{
												OFFSET 3.56744 0.00000 0.00000
												CHANNELS 3 Zrotation Xrotation Yrotation
												End site
												{
													OFFSET 0.00000 0.00000 0.00000
												}
											}
										}
									}
									JOINT LeftHandPinky1
									{
										OFFSET 11.11390 0.00000 -6.03719
										CHANNELS 3 Zrotation Xrotation Yrotation
										JOINT LeftHandPinky2
										{
											OFFSET 4.52789 0.00000 0.00000
											CHANNELS 3 Zrotation Xrotation Yrotation
											JOINT LeftHandPinky3
											{
												OFFSET 2.46976 0.00000 0.00000
												CHANNELS 3 Zrotation Xrotation Yrotation
												End site
												{
													OFFSET 0.00000 0.00000 0.00000
												}
											}
										}
									}
								}
							}
						}
					}
					JOINT pCube4
					{
						OFFSET 0.00000 10.91090 1.10792
						CHANNELS 3 Zrotation Xrotation Yrotation
						End site
						{
							OFFSET 0.00000 0.00000 0.00000
						}
					}
				}
			}
		}
	}
	JOINT RightUpLeg
	{
		OFFSET -9.98441 0.00000 0.00000
		CHANNELS 3 Zrotation Xrotation Yrotation
		JOINT RightLeg
		{
			OFFSET 0.00000 -42.11790 0.00000
			CHANNELS 3 Zrotation Xrotation Yrotation
			JOINT RightFoot
			{
				OFFSET 0.00000 -45.00020 -0.00001
				CHANNELS 3 Zrotation Xrotation Yrotation
				JOINT RightForeFoot
				{
					OFFSET 0.00000 -3.74820 0.00000
					CHANNELS 3 Zrotation Xrotation Yrotation
					JOINT RightToeBase
					{
						OFFSET 0.00000 0.06325 14.43120
						CHANNELS 3 Zrotation Xrotation Yrotation
						End site
						{
							OFFSET 0.00000 0.00000 0.00000
						}
					}
				}
			}
		}
	}
	JOINT LeftUpLeg
	{
		OFFSET 9.98441 0.00000 0.00000
		CHANNELS 3 Zrotation Xrotation Yrotation
		JOINT LeftLeg
		{
			OFFSET 0.00000 -42.11800 0.00000
			CHANNELS 3 Zrotation Xrotation Yrotation
			JOINT LeftFoot
			{
				OFFSET 0.00000 -45.00070 0.00000
				CHANNELS 3 Zrotation Xrotation Yrotation
				JOINT LeftForeFoot
				{
					OFFSET 0.00000 -3.74824 0.00000
					CHANNELS 3 Zrotation Xrotation Yrotation
					JOINT LeftToeBase
					{
						OFFSET 0.00000 0.06325 14.43110
						CHANNELS 3 Zrotation Xrotation Yrotation
						End site
						{
							OFFSET 0.00000 0.00000 0.00000
						}
					}
				}
			}
		}
	}
}
MOTION
Frames: 4
Frame Time: 0.050000
0.01398724302243689 0.02890280286750252 -0.0033112311699873306 -0.008353677625504641 -0.03733312510710108 -0.006734775354274657 -3.717763345864802 3.105521852191408 -0.6315523374191434 -0.776770827805817 3.2677523694546178 0.29129598995239736 -0.9706990871477098 -1.307499417491515 -2.2253020667325343 -0.2838135273627237 0.45085463249911545 -1.077522977806045 -0.8817222515263953 10.509734828487229 1.4750574405127064 -0.11427900710054845 -0.8375324031325049 1.8090574463031697 -0.5447572330270009 -15.768647916528446 0.16807378723078675 0.4259185778343068 0.6346747701831581 -11.42453630773604 69.1044538038772 23.704920194179383 9.083826013993214 20.526356586498917 5.8843060937874085 81.8364168873948 25.65055337594978 -0.21848419354106138 -6.259781016162042 4.499086080999584 -0.12918236853124807 -1.5749375726998094 0.02365704288252323 -0.04198939254107235 -56.27509045855023 0.027549760735214927 -0.015493557410571998 -56.20804179963587 -38.72303554251077 0.04621410207358314 -0.03404365264529737 -0.0076927871268211295 0.021710949793150712 -0.028786245777467568 -0.03394108987157156 0.006119599802717444 0.012212665101844628 -36.73012608045661 -0.025238265441707347 0.01865859442983184 -0.04059763708929065 0.023808853194905208 0.034451587256340996 -0.01531992278179284 0.028065459001495693 -0.00880230055613383 -19.717700972699163 -0.005828428656876782 0.03919847019145644 0.044800905888108186 0.004373754444156895 0.011207866008389623 0.013005385456505559 -0.023284637628438142 -0.014636186889092411 24.099899722224574 0.003047807932633495 0.0035019115303339073 28.852581371722415 0.029052939591406726 0.020833056983678506 28.867135716081393 0.02586690045685198 0.010668078698953799 3.650570809699944 1.1802213432882138 9.935318592404212 -62.832912915042705 26.116453906612143 -21.657645450759542 -42.04885798281275 6.436204247457194 -82.01862356475509 -16.19484906343159 1.5889318777818335 -0.776758943980287 -0.457671141744274 0.045820196230158414 -8.120049299080721 -0.006922132044332726 -0.016949875843547527 44.588436416104685 0.006566629536583357 0.011606445681998805 44.58749768196934 12.480343901517426 -0.0394526086518963 0.027590468501540316 0.020106009847110282 0.02916657336248315 -0.023256321041157314 0.03273435673332776 0.040816228236684494 0.010987091253874781 11.122010186120548 0.015107505551407725 0.04616629667256143 -0.041160882600164844 0.0008224969176333768 -0.02974127508717339 -0.0018368427504301908 0.04295697737039919 -0.010119469006775766 4.7506796766448405 -0.04585477068211392 -0.0119830275840436 -0.0010301718029688198 -0.02912169708575031 0.04536767415353626 0.0034556817435599124 0.03157235944642448 -0.0039949334281009575 -5.5922175370784455 -0.02850932989676158 0.019554775495681666 -6.708720783050717 -0.004370747015800989 -0.03646296463957462 -6.707094861826143 0.040983314740630654 0.0367892610790954 0.038613886194413014 0.03590460472629064 0.020904437148401553 8.025402717367793 3.507498197684918 -19.195799502559474 0.04417014083973029 10.397923245717761 0.012402494688560101 -5.664289402788864 -15.695168024188579 3.231056599803964 -0.009860032866122897 0.006074741647341683 0.040178508718855734 -0.012554080727147324 4.657565249533498 0.022876369380104667 12.486997193444624 -8.199894752542004 6.834256376316805 0.03654168333343284 46.415080553621785 -0.03083905048828227 -4.308030117354833 -14.79139496173359 -3.8199962213323286 0.007657744533089131 -0.019618957127629566 0.00016020795010252012 0.031149149361853548 -10.698893146348505 0.035073568776630926 
0.01642149840491605 -0.029717371289804746 -0.03802339898325992 0.009170826680446107 0.004069281488364021 -0.008635779888454298 -3.793009489077005 3.125007620295227 -0.6400398571593549 -0.7617558004568552 3.3723617369261185 0.39878791422299953 -1.0330437178583858 -1.3382705057723905 -1.8565600370688762 -0.35447440875254854 0.4273818657470671 -0.9893043791084396 -0.7768164266604649 10.40582859759595 1.5871509986560592 -0.1325272933463 -0.9429089200680123 1.6667330810591037 -0.4825245551716378 -15.85811959160816 0.14443076507287883 0.4008243865263283 0.6329003826298317 -11.6631479022837 69.63452819319428 24.200409540249648 7.15962299243855 16.455134603453786 5.776040858097528 75.3431454789846 26.107622483522533 -0.16991608681186565 -5.917861050525436 4.525951687501799 -0.17614472072936077 -1.5759992206629054 0.049642518733229765 -0.00863361982048852 -56.26675430621398 -0.015283656892751345 0.02419562390913478 -56.23733978450701 -38.797854633042135 0.010588501300863962 0.03790694039851532 0.00013845971561072376 0.019399731674853524 -0.031197350633846162 0.04043596172716918 -0.010259272163378724 0.024421761785145116 -36.70032680958892 0.04936084887444414 0.01911138927592758 -0.04394841047999278 0.024738103735925217 -0.03591444965248043 -0.004450547379858022 -0.018555302531314505 0.022571146294809986 -19.734171198810746 0.012864668564107395 -0.024734111823838945 -0.031898031349069905 -0.02709784068762379 0.010460297889491876 -0.031991030450698 -0.04811895055524845 0.0382555644178412 24.02249230269068 0.04925301535168017 -0.02992300673675514 28.86562849347189 0.028357087431010508 -0.006947567971755845 28.817738589308796 -0.01251217508774076 0.016789412057679923 3.0140851642810618 1.035643056083566 10.3065105939826 -64.82748141846366 25.936227514228566 -16.752029613081586 -38.95386349014425 6.897417716854245 -75.81590638858347 -15.857728885880196 1.982750854297939 -0.7475124028698258 -0.46279475570439854 0.11051272658239009 -8.130022638961735 -0.007787177786565807 0.015298472622990354 44.579048340507704 0.017753673537083695 -0.00298372645289573 44.521718523100034 12.470516289122019 -0.0064473986316768315 -0.009053258732421991 0.010326151378060503 -0.048337571007843964 0.01044704273762535 0.03520787533696569 -0.01628282579987721 0.022862260887365426 11.096879698110204 -0.0029397014769868123 -0.044916112412477185 -0.023192194426949263 -0.010490367136034986 -0.037080512863563043 -0.010833550275368885 0.03869311031423223 0.017286693095692095 4.777782370685901 0.03604452352008658 0.020870526337515474 0.0010186686398505882 -0.0036321555300817482 0.04561545399588852 -0.007804630436400884 0.010693635126659823 0.01065254891818513 -5.574187975629566 -0.02648731386734821 -0.019660815936802994 -6.701852105400555 -0.0045079227335174075 -0.03477046729301396 -6.710638445376091 0.0497122587975475 0.002155557638459639 0.021331454908427874 -0.022920291450807293 -0.03660367132138593 8.01361410319652 3.5221929302383783 -19.2136590238768 -0.02307829709904391 10.387316070174927 0.04953677372298532 -5.63704003659346 -15.692490791583046 3.228412029576674 -0.038848755630743956 -0.04343143481375305 0.04047768758073004 -0.0456356216123602 4.651658160996437 -0.013809656346445895 12.475711840723397 -8.242775538750845 6.8873329855941305 0.03790022591569225 46.347929059190896 0.022524874933382746 -4.3552174757649045 -14.777931652175907 -3.8555550093689255 -0.024701785680249198 0.006590821108508705 -0.00938897721342852 -0.011538047492734765 -10.768439049992553 0.04464786983322279 
0.0023522444635199506 0.04510341682712838 0.0031037975252394875 0.027366831792661646 0.01425943318888322 -0.03330448361047718 -3.849051783337761 2.9826341883063403 -0.608049406944232 -0.8237363070676644 3.3987449163985133 0.3693085265295638 -1.0555168925055114 -1.3732929324583993 -1.642890480243784 -0.4576308308932392 0.45112899905932285 -0.9899747739303736 -0.7390694246685301 10.316117050436066 1.6353159036220821 -0.13097985805962087 -0.9642115184683259 1.5634082713602755 -0.45658025815523584 -15.911164616174137 0.2036507905657167 0.22578784554530396 0.6675948031688738 -11.87636365169891 70.0210572146959 24.611336873086508 5.4831135547073035 13.099330925061041 5.19653751576585 69.9338548933357 26.520287260635133 -0.14971566283448026 -5.722737233547409 4.539003207933153 -0.15890961205713394 -1.582016353332012 -0.008078236567111171 0.040426210733482085 -56.27127301470046 0.027034975079376182 -0.013461536630096721 -56.25818322921923 -38.721143893980006 -0.04513748869218506 0.012423947389646722 -0.0414700344468321 -0.032222630886376946 0.018514962599083425 -0.0032623381193831453 0.014649069265689407 0.008816859342263794 -36.66869663132688 -0.0407913149073427 0.010079066052837489 0.032189332689261836 0.048566672249761675 0.0011120645488678473 0.013176424184171882 -0.023430101592045834 0.031555521852651314 -19.73231401716696 0.034085906967958796 0.044438936916998746 0.04105773777444312 0.01909333514189915 -0.013287739080986108 -0.044976594544911076 0.04077805993177266 -0.03100467864157211 24.102030610463427 0.03722492341492247 0.014148205560595747 28.88526888828527 -0.03483732566345436 0.02778157246549422 28.891552591329035 0.038864036901073463 0.004787837285132895 2.70557768243859 0.9334163784081583 10.719502745157559 -66.65105151802777 25.740765941178918 -13.051197943138181 -36.970802268015476 7.062014297194788 -70.3838707297888 -15.668315471213496 2.1189908655194634 -0.648630628057504 -0.49419858845714276 0.08611774993978209 -8.156608606302623 -0.0358926370486551 -0.011491395726328688 44.559469124331024 0.015995984995474985 -0.016449715489839464 44.53675744274673 12.49686576038565 0.03330149647571922 0.02662130713193942 0.026834518167849826 0.030178877776308382 0.03292090355962215 -0.03820707286743988 -0.007618656631974517 0.0426427538535779 11.119099686287287 0.013961110911190046 -0.007559375577510037 0.008072026836251245 -0.007545563167818029 0.04353952147227727 -0.028926263267782054 -0.009498749602264309 -0.0008496638099459143 4.722630765734034 -0.0065719018527655515 -0.02775874802267558 0.029278711727667304 0.020355241468135 -0.029522661020204687 0.012098938253916875 0.03214928131311272 0.025890880881083298 -5.5858250344758105 0.02757721215093609 0.021942561690534008 -6.700790177886952 -0.02352255598512679 -0.04451839879409192 -6.698305964151036 -0.020771841447366903 -0.02593081474441529 -0.010940518744620813 -0.0394713875791911 0.0028687379372425393 8.032182804720962 3.484577364951271 -19.243854192751122 -0.01674196183590212 10.38163100726132 0.028919706708241393 -5.575790969459271 -15.63586372697595 3.2298965017945322 0.0030762851140741045 0.024148853606281176 0.0045424067692396795 -0.043146844047315315 4.690623264371193 0.013041765669178884 12.445057958386235 -8.198622780856034 6.869092090567774 0.046934183339150774 46.334014623293335 0.03510054909742686 -4.289968757435412 -14.736615661650191 -3.8597764205491885 0.047518985183554976 -0.02603513434870838 -0.043801471643375896 0.017912876129674734 -10.728553830019013 0.009542017774765836 
0.007272848435459965 -0.0365574338415093 0.017010617833969614 -0.04790309971548771 -0.023220907374059015 -0.01754153339913127 -3.8116562257310007 2.87208677140516 -0.6064384024082708 -0.8459615528814285 3.394593747176418 0.3787948192808905 -1.0827545296113676 -1.444725874304322 -1.481244839208226 -0.42045100400360963 0.4335372047586581 -0.9191515439300152 -0.6550589703725047 10.360398603187782 1.515335193966904 -0.08265043226716932 -0.9571357541056132 1.3233033246324297 -0.43754175526433803 -15.91718199417865 0.16023960534692125 0.0077834244636524885 0.7614444835732355 -12.15484484864967 70.43277500503665 24.586073426327967 4.325794747548924 9.870598522113642 3.827551327463127 66.99934745865875 26.3726295071814 -0.23479176354841377 -5.320150484500003 4.526875061024567 -0.16853069921394326 -1.5637001457176065 0.037541646287225526 0.040970506659757266 -56.272615707189274 0.03651832466166481 -0.0003968129721262544 -56.27814740360375 -38.75757833849276 -0.03286950080539159 -0.012184030726775015 -0.006980557056405581 -0.030722933145619174 -0.00751118876685497 -0.010994462789666301 0.03152181108890982 -0.04561022026357348 -36.71502879159495 0.004524877684056798 -0.04870489476680447 -0.01200240452947868 0.0057638523599303874 0.03324986688185002 0.01942370192984018 -0.01795909501602107 0.0036760374161625255 -19.713865128342647 -0.008724116603943009 -0.008396170800827434 0.0426501351600367 0.016248759678008613 0.027647280661581255 0.03737981140637982 -0.028549489985330596 -0.031203275805360715 24.0579893887774 0.026658937231330247 -0.04403157237866799 28.861503222901003 0.020167457625370658 0.019047671719340933 28.914768933095562 -0.022922544817308037 -0.042349162508693035 2.635446397908432 0.9615981216107086 10.973349787155835 -67.78532669307803 25.836794117148386 -10.704647355535261 -34.14689459000904 6.375510633681589 -66.50838831074957 -15.085872320075588 2.2302553301784447 -0.5847248502898396 -0.4914749691613383 0.05888220171611103 -8.121056889836618 0.011122070190592444 0.009480051588523325 44.60227080785738 -0.04936754733426184 -0.001754249041267336 44.59162668603828 12.46927020718038 0.029283826987983274 -0.02731572256673318 -0.028801471203162125 -0.003642904424148609 -0.025757831528933624 0.03554306677593291 0.006411390497518668 -0.006221916101937578 11.081652613717166 0.03616184835733175 0.033357645001861266 -0.009024555188715656 -0.021184001856064633 0.02420870678313983 -0.011023518446887755 0.010138256533886954 -0.023923773921107068 4.759823381461117 0.004372676518842469 0.026242852717931187 -0.0414230104432719 0.039047937199942054 0.02237097831261493 -0.04344351581836742 0.012964422465289739 0.03183038499031595 -5.648509870877714 -0.011540108959462357 -0.001303161227352403 -6.686354765530032 0.0185458828411734 0.006608431432424241 -6.691666076601887 -0.018465683261480473 -0.030548213334504453 -0.008675634516588952 -0.027954059722859283 0.011347909962790502 8.022081683462826 3.4736240070561624 -19.187411634864638 0.015313160323820373 10.374240279192472 0.0035919349972410135 -5.642109280190705 -15.690908102180435 3.1852403657997366 -0.0017191457746634528 -0.0070311680233936125 0.02515323300169734 0.0006101917180197085 4.715498077007536 0.03083845623997361 12.443281929583213 -8.26409931344496 6.855859509641264 0.0269704711066445 46.3409186886502 -0.04253212987265089 -4.286830673073089 -14.74894025283674 -3.8401325110423894 0.04201760832620378 0.022621851451648172 0.04545896195154424 0.04313462127755462 -10.750158637784272 -0.03593165322227162 
